{"title":"Beautiful Creatures(2013)MPEG-4[DaScubaDude]","uid":14591377,"size":1242116429,"categoryP":"video","categoryS":"movies","magnet":"?xt=urn:btih:1ea0a599c16e4f7f0864be31950c6b917e25d6a5&amp;dn=Beautiful+Creatures%282013%29MPEG-4%5BDaScubaDude%5D&amp;tr=udp%3A%2F%2Ftracker.leechers-paradise.org%3A6969&amp;tr=udp%3A%2F%2Fzer0day.ch%3A1337&amp;tr=udp%3A%2F%2Fopen.demonii.com%3A1337&amp;tr=udp%3A%2F%2Ftracker.coppersurfer.tk%3A6969&amp;tr=udp%3A%2F%2Fexodus.desync.com%3A6969","seeders":0,"leechers":0,"uploader":"dascuba","files":1,"time":1462980801,"description":"Beautiful Creatures (2013)\r\nPG-13 | 2h 4min | Drama, Fantasy, Romance | 14 February 2013 (USA)\r\nEthan longs to escape his small Southern town. He meets a mysterious new girl, Lena. Together, they uncover dark secrets about their respective families, their history and their town.\r\nDirector: Richard LaGravenese\r\nWriters: Richard LaGravenese (screenplay), Kami Garcia (based on the novel &quot;Beautiful Creatures&quot; by) | \r\nStars: Alice Englert, Viola Davis, Emma Thompson |\r\n\r\nGeneral\r\nComplete name                            : BeautifulCreaturesBEAUTIFUL_CREATURES_Title1.mp4\r\nFormat                                   : MPEG-4\r\nFormat profile                           : Base Media\r\nCodec ID                                 : isom (isom/iso2/avc1/mp41)\r\nFile size                                : 1.16 GiB\r\nDuration                                 : 2h 3mn\r\nOverall bit rate                         : 1 339 Kbps\r\nMovie name                               : BEAUTIFUL_CREATURES\r\nWriting application                      : Lavf54.6.100\r\n\r\nVideo\r\nID                                       : 1\r\nFormat                                   : AVC\r\nFormat/Info                              : Advanced Video Codec\r\nFormat profile                           :   \r\nFormat settings, CABAC                   : No\r\nFormat settings, ReFrames                : 6 frames\r\nCodec ID                                 : avc1\r\nCodec ID/Info                            : Advanced Video Coding\r\nDuration                                 : 2h 3mn\r\nBit rate                                 : 1 205 Kbps\r\nWidth                                    : 720 pixels\r\nHeight                                   : 404 pixels\r\nDisplay aspect ratio                     : 16:9\r\nFrame rate mode                          : Constant\r\nFrame rate                               : 29.970 (30000/1001) fps\r\nColor space                              : YUV\r\nChroma subsampling                       : 4:2:0\r\nBit depth                                : 8 bits\r\nScan type                                : Progressive\r\nBits/(Pixel*Frame)                       : 0.138\r\nStream size                              : 1.04 GiB (90%)\r\n\r\nAudio\r\nID                                       : 2\r\nFormat                                   : AAC\r\nFormat/Info                              : Advanced Audio Codec\r\nFormat profile                           : LC\r\nCodec ID                                 : 40\r\nDuration                                 : 2h 3mn\r\nBit rate mode                            : Constant\r\nBit rate                                 : 128 Kbps\r\nChannel(s)                               : 2 channels\r\nChannel positions                        : Front: L R\r\nSampling rate                            : 44.1 KHz\r\nFrame rate                               : 43.066 fps (1024 spf)\r\nCompression mode                         : Lossy\r\nStream size                              : 113 MiB (10%)\r\nDefault                                  : Yes\r\nAlternate group                          : 1","torrent":{"xt":"urn:btih:1ea0a599c16e4f7f0864be31950c6b917e25d6a5","amp;dn":"Beautiful+Creatures%282013%29MPEG-4%5BDaScubaDude%5D","amp;tr":["udp%3A%2F%2Ftracker.leechers-paradise.org%3A6969","udp%3A%2F%2Fzer0day.ch%3A1337","udp%3A%2F%2Fopen.demonii.com%3A1337","udp%3A%2F%2Ftracker.coppersurfer.tk%3A6969","udp%3A%2F%2Fexodus.desync.com%3A6969"],"infoHash":"1ea0a599c16e4f7f0864be31950c6b917e25d6a5","infoHashBuffer":{"type":"Buffer","data":[30,160,165,153,193,110,79,127,8,100,190,49,149,12,107,145,126,37,214,165]},"announce":[],"urlList":[]}}